HIERARCHY
ROOT Beta:Hips
{
	OFFSET 0.00 0.00 0.00
	CHANNELS 6 Xposition Yposition Zposition Yrotation Xrotation Zrotation
	JOINT Beta:Spine
	{
		OFFSET	0.0000	9.2263	1.5771
		CHANNELS 3 Xrotation Yrotation Zrotation
		JOINT Beta:Spine1
		{
			OFFSET	0.0000	16.2540	-0.1656
			CHANNELS 3 Xrotation Yrotation Zrotation
			JOINT Beta:Spine2
			{
				OFFSET	0.0000	13.6396	-1.2923
				CHANNELS 3 Xrotation Yrotation Zrotation
				JOINT Beta:Neck
				{
					OFFSET	0.0000	13.8774	-4.3542
					CHANNELS 3 Xrotation Yrotation Zrotation
					JOINT Beta:Neck1
					{
						OFFSET	0.0000	4.3400	0.9269
						CHANNELS 3 Xrotation Yrotation Zrotation
						JOINT Beta:Head
						{
							OFFSET	0.0000	4.0266	0.8585
							CHANNELS 3 Xrotation Yrotation Zrotation
							End Site
							{
								OFFSET 0.0000 23.0297 0.1231
							}
						}
					}
				}
				JOINT Beta:LeftShoulder
				{
					OFFSET	6.1442	10.1870	-3.7932
					CHANNELS 3 Zrotation Xrotation Yrotation
					JOINT Beta:LeftArm
					{
						OFFSET	12.3191	-1.1130	-1.7935
						CHANNELS 3 Zrotation Xrotation Yrotation
						JOINT Beta:LeftForeArm
						{
							OFFSET	27.6870	0.0000	0.0000
							CHANNELS 3 Xrotation Zrotation Yrotation
							JOINT Beta:LeftHand
							{
								OFFSET	27.8738	0.0000	0.0000
								CHANNELS 3 Zrotation Yrotation Xrotation
								JOINT Beta:LeftHandThumb1
								{
									OFFSET	2.3785	-1.0029	2.6209
									CHANNELS 3 Zrotation Xrotation Yrotation
									JOINT Beta:LeftHandThumb2
									{
										OFFSET	3.3624	-1.0029	2.8398
										CHANNELS 3 Zrotation Xrotation Yrotation
										JOINT Beta:LeftHandThumb3
										{
											OFFSET	4.5018	-1.3445	2.1783
											CHANNELS 3 Zrotation Xrotation Yrotation
											End Site
											{
												OFFSET 2.6000 -1.0000 1.0000
											}
										}
									}
								}
								JOINT Beta:LeftHandMiddle1
								{
									OFFSET	10.4639	0.6148	0.4298
									CHANNELS 3 Zrotation Xrotation Yrotation
									JOINT Beta:LeftHandMiddle2
									{
										OFFSET	5.7921	0.0000	0.0000
										CHANNELS 3 Zrotation Xrotation Yrotation
										JOINT Beta:LeftHandMiddle3
										{
											OFFSET	3.7132	0.0000	0.0000
											CHANNELS 3 Zrotation Xrotation Yrotation
											End Site
											{
												OFFSET 2.3000 0.0000 0.0000
											}
										}
									}
								}
								JOINT Beta:LeftHandIndex1
								{
									OFFSET	10.3945	0.6148	2.7055
									CHANNELS 3 Zrotation Xrotation Yrotation
									JOINT Beta:LeftHandIndex2
									{
										OFFSET	5.5493	0.0000	0.0000
										CHANNELS 3 Zrotation Xrotation Yrotation
										JOINT Beta:LeftHandIndex3
										{
											OFFSET	3.3911	0.0000	0.0000
											CHANNELS 3 Zrotation Xrotation Yrotation
											End Site
											{
												OFFSET 2.5000 0.0000 0.0000
											}
										}
									}
								}
								JOINT Beta:LeftHandRing1
								{
									OFFSET	10.3252	0.3211	-1.8755
									CHANNELS 3 Zrotation Xrotation Yrotation
									JOINT Beta:LeftHandRing2
									{
										OFFSET	5.4452	0.0000	0.0000
										CHANNELS 3 Zrotation Xrotation Yrotation
										JOINT Beta:LeftHandRing3
										{
											OFFSET	3.7132	0.0000	0.0000
											CHANNELS 3 Zrotation Xrotation Yrotation
											End Site
											{
												OFFSET 2.0000 0.0000 0.0000
											}
										}
									}
								}
								JOINT Beta:LeftHandPinky1
								{
									OFFSET	10.0130	-0.0783	-3.9671
									CHANNELS 3 Zrotation Xrotation Yrotation
									JOINT Beta:LeftHandPinky2
									{
										OFFSET	3.6763	0.0000	0.0000
										CHANNELS 3 Zrotation Xrotation Yrotation
										JOINT Beta:LeftHandPinky3
										{
											OFFSET	2.8113	0.0000	0.0000
											CHANNELS 3 Zrotation Xrotation Yrotation
											End Site
											{
												OFFSET 2.9000 0.0000 0.0000
											}
										}
									}
								}
							}
						}
					}
				}
				JOINT Beta:RightShoulder
				{
					OFFSET	-6.1402	10.1870	-3.7932
					CHANNELS 3 Zrotation Xrotation Yrotation
					JOINT Beta:RightArm
					{
						OFFSET	-12.3231	-1.1130	-1.7935
						CHANNELS 3 Zrotation Xrotation Yrotation
						JOINT Beta:RightForeArm
						{
							OFFSET	-27.6870	0.0000	0.0000
							CHANNELS 3 Xrotation Zrotation Yrotation
							JOINT Beta:RightHand
							{
								OFFSET	-27.8738	0.0000	0.0000
								CHANNELS 3 Zrotation Yrotation Xrotation
								JOINT Beta:RightHandThumb1
								{
									OFFSET	-2.5178	-0.9367	2.5137
									CHANNELS 3 Zrotation Xrotation Yrotation
									JOINT Beta:RightHandThumb2
									{
										OFFSET	-3.2638	-1.0870	2.9669
										CHANNELS 3 Zrotation Xrotation Yrotation
										JOINT Beta:RightHandThumb3
										{
											OFFSET	-4.4165	-1.3703	2.1350
											CHANNELS 3 Zrotation Xrotation Yrotation
											End Site
											{
												OFFSET -2.6000 -1.0000 1.0000
											}
										}
									}
								}
								JOINT Beta:RightHandIndex1
								{
									OFFSET	-10.4665	0.4896	2.7120
									CHANNELS 3 Zrotation Xrotation Yrotation
									JOINT Beta:RightHandIndex2
									{
										OFFSET	-5.3768	0.0000	0.0000
										CHANNELS 3 Zrotation Xrotation Yrotation
										JOINT Beta:RightHandIndex3
										{
											OFFSET	-3.3855	0.0000	0.0000
											CHANNELS 3 Zrotation Xrotation Yrotation
											End Site
											{
												OFFSET -2.6000 0.0000 0.0000
											}
										}
									}
								}
								JOINT Beta:RightHandMiddle1
								{
									OFFSET	-10.7596	0.4896	0.4278
									CHANNELS 3 Zrotation Xrotation Yrotation
									JOINT Beta:RightHandMiddle2
									{
										OFFSET	-5.6168	0.0000	0.0000
										CHANNELS 3 Zrotation Xrotation Yrotation
										JOINT Beta:RightHandMiddle3
										{
											OFFSET	-3.7364	0.0000	0.0000
											CHANNELS 3 Zrotation Xrotation Yrotation
											End Site
											{
												OFFSET -2.3000 0.0000 0.0000
											}
										}
									}
								}
								JOINT Beta:RightHandRing1
								{
									OFFSET	-10.4702	0.3879	-1.9363
									CHANNELS 3 Zrotation Xrotation Yrotation
									JOINT Beta:RightHandRing2
									{
										OFFSET	-5.4013	0.0000	0.0000
										CHANNELS 3 Zrotation Xrotation Yrotation
										JOINT Beta:RightHandRing3
										{
											OFFSET	-3.3916	0.0000	0.0000
											CHANNELS 3 Zrotation Xrotation Yrotation
											End Site
											{
												OFFSET -2.2000 0.0000 0.0000
											}
										}
									}
								}
								JOINT Beta:RightHandPinky1
								{
									OFFSET	-9.9715	-0.1191	-3.9540
									CHANNELS 3 Zrotation Xrotation Yrotation
									JOINT Beta:RightHandPinky2
									{
										OFFSET	-3.6528	0.0000	0.0000
										CHANNELS 3 Zrotation Xrotation Yrotation
										JOINT Beta:RightHandPinky3
										{
											OFFSET	-2.7820	0.0000	0.0000
											CHANNELS 3 Zrotation Xrotation Yrotation
											End Site
											{
												OFFSET -2.9000 0.0000 0.0000
											}
										}
									}
								}
							}
						}
					}
				}
			}
		}
	}
	JOINT Beta:LeftUpLeg
	{
		OFFSET	9.6338	-3.2733	0.0000
		CHANNELS 3 Xrotation Yrotation Zrotation
		JOINT Beta:LeftLeg
		{
			OFFSET	0.0000	-41.7300	-1.7300
			CHANNELS 3 Xrotation Yrotation Zrotation
			JOINT Beta:LeftFoot
			{
				OFFSET	0.0126	-39.1900	-0.8477
				CHANNELS 3 Xrotation Yrotation Zrotation
				JOINT Beta:LeftToeBase
				{
					OFFSET	-0.1833	-12.1931	8.2823
					CHANNELS 3 Xrotation Yrotation Zrotation
					End Site
					{
						OFFSET 0.0000 0.0000 10.1681
					}
				}
			}
		}
	}
	JOINT Beta:RightUpLeg
	{
		OFFSET	-9.6338	-3.2733	0.0000
		CHANNELS 3 Xrotation Yrotation Zrotation
		JOINT Beta:RightLeg
		{
			OFFSET	0.0000	-41.7300	-1.7300
			CHANNELS 3 Xrotation Yrotation Zrotation
			JOINT Beta:RightFoot
			{
				OFFSET	0.0126	-39.1900	-0.8477
				CHANNELS 3 Xrotation Yrotation Zrotation
				JOINT Beta:RightToeBase
				{
					OFFSET	-0.1833	-12.1931	8.2823
					CHANNELS 3 Xrotation Yrotation Zrotation
					End Site
					{
						OFFSET 0.0032 0.0000 10.1681
					}
				}
			}
		}
	}
}
MOTION
Frames: 6
Frame Time: 0.0333333
-0.0000 95.7681 -0.0000 6.5169 -3.7381 -3.0090 3.3079 1.5309 2.3242 1.1519 0.3395 1.5528 1.1260 0.3615 1.5559 5.6263 -0.0790 0.4547 -0.0000 0.0000 -0.0000 -7.5633 1.3757 -0.0806 -11.7847 4.6889 -16.8492 -69.8728 20.0976 -3.2887 0.0000 0.0000 -1.4594 -8.5115 -3.9540 -26.8291 -1.2621 4.7859 8.5754 14.3745 8.6022 13.9491 -4.3838 -7.3980 1.1523 -12.5291 0.0000 -1.3262 -17.4877 -0.0000 0.0000 -18.4999 -0.0000 0.0000 -4.0790 0.4326 -4.0628 -17.4641 -0.0000 -0.0000 -8.0824 -0.0000 -0.0000 -18.0279 -0.0000 -0.8904 -21.0119 -0.0000 0.0000 -17.9526 0.0000 0.0000 -24.1385 -0.0457 0.5632 -17.4915 0.0000 0.0000 -16.5876 -0.0000 -0.0000 14.2263 5.0180 14.5673 61.3312 30.2135 2.5703 -0.0000 0.0000 6.6938 9.6610 0.3539 -15.3862 1.2621 4.7859 -8.5754 -12.8171 8.9378 -16.2599 0.8071 -9.7758 4.0710 4.0791 0.4243 4.0627 17.4612 0.0000 -0.0000 8.0796 -0.0000 0.0000 12.5291 -0.0000 1.3262 17.4911 0.0000 -0.0000 18.5032 -0.0000 -0.0000 18.0279 -0.0000 0.8955 21.0119 -0.0000 -0.0000 17.9526 0.0000 0.0000 24.1387 -0.0597 -0.5632 17.4912 0.0000 -0.0000 16.5876 -0.0000 0.0000 -11.2444 14.6550 10.3491 13.9610 2.0225 4.2069 0.0620 0.6161 -7.4841 -4.9285 0.0000 0.0000 2.7251 -10.2895 3.6579 4.1376 -9.7133 -3.2747 -2.6258 -1.5839 2.8223 -7.2933 -0.0000 -0.0000 
0.5861 95.6248 -0.3828 4.2930 -3.5436 -3.0356 3.4252 1.3054 2.1491 1.2483 0.1850 1.5502 1.2185 0.2052 1.5943 5.5082 -0.7201 0.7881 -0.0000 0.0000 -0.0000 -7.9211 -0.7306 0.4497 -11.5437 4.6889 -16.9206 -69.6005 20.3660 -2.7749 -0.0000 -0.0000 -1.7500 -8.4519 -3.8733 -27.1931 -1.2621 4.7859 8.5754 14.4061 8.5760 13.8438 -4.3838 -7.3980 1.1666 -12.6501 -0.0000 -1.3467 -17.4877 -0.0000 -0.0000 -18.4999 0.0000 0.0000 -4.1034 0.4141 -4.0955 -17.4641 -0.0000 -0.0000 -8.0824 0.0000 0.0000 -18.1045 -0.0000 -0.9015 -20.9804 0.0000 -0.0000 -17.9211 -0.0000 0.0000 -24.2095 -0.0607 0.4762 -17.6707 0.0000 0.0000 -16.7650 0.0000 -0.0000 14.3569 5.0506 14.6584 60.5248 27.7443 3.4119 -0.0000 -0.0000 7.6114 7.3098 1.3466 -13.8939 1.2621 4.7859 -8.5754 -12.8171 8.7659 -16.2850 0.8071 -9.7758 3.9975 4.2029 0.4243 4.0809 17.4802 -0.0000 0.0000 8.0986 -0.0000 -0.0000 12.6623 -0.0000 1.3911 17.5041 0.0000 0.0000 18.5166 -0.0000 -0.0000 18.1212 -0.0000 0.8905 21.0438 -0.0000 -0.0000 17.9845 0.0000 0.0000 24.2006 -0.0598 -0.5165 17.5096 0.0000 -0.0000 16.6059 0.0000 -0.0000 -12.2182 14.3101 10.3485 16.1764 4.0200 4.1922 -1.1975 1.1713 -7.4076 -4.9285 0.0000 -0.0000 -0.3073 -10.3779 2.6842 8.8245 -7.5667 -3.1084 -4.4141 -1.6607 3.3040 -7.2933 -0.0000 0.0000 
1.9959 95.3490 -1.1622 2.1967 -3.2963 -3.0839 3.5552 1.1255 1.9153 1.3482 0.0687 1.4333 1.3144 0.0952 1.5996 5.6868 -1.9762 1.3552 -0.0000 0.0000 -0.0000 -7.7374 -4.0454 1.2835 -11.3114 4.6844 -16.9516 -69.2107 20.2957 -2.0805 -0.0000 -0.0000 -2.2020 -8.3131 -3.5483 -27.6417 -1.2621 4.7859 8.5754 14.3136 8.6176 14.0135 -4.3838 -7.3980 1.1503 -12.6556 0.0000 -1.3034 -17.4870 -0.0000 -0.0000 -18.4989 -0.0000 0.0000 -4.1888 0.4093 -4.0948 -17.4647 0.0000 0.0000 -8.0830 -0.0000 -0.0000 -18.1544 0.0000 -0.9422 -21.0174 -0.0000 -0.0000 -17.9581 0.0000 -0.0000 -24.3335 -0.0854 0.3333 -17.4984 -0.0000 0.0000 -16.5897 0.0000 -0.0000 14.4988 5.0885 14.7654 60.0169 23.2800 3.7755 -0.0000 -0.0000 8.6366 5.3270 2.7925 -9.7047 1.2620 4.7859 -8.5754 -12.8133 8.8341 -16.2580 0.7963 -9.7689 4.0358 4.2588 0.4338 4.0599 17.4644 0.0000 -0.0000 8.0828 0.0000 -0.0000 12.7145 0.0000 1.4239 17.5157 -0.0000 -0.0000 18.5283 0.0000 0.0000 18.2020 0.0000 0.8628 21.0610 0.0000 0.0000 18.0015 -0.0000 0.0000 24.2458 -0.0597 -0.5538 17.4915 -0.0000 -0.0000 16.5879 0.0000 0.0000 -13.9197 13.1305 9.6284 19.7505 6.0160 4.2949 -3.0528 2.5840 -6.9466 -4.9285 0.0000 0.0000 -5.2492 -3.7257 -0.0436 16.6562 -9.9991 0.3727 -5.4260 -5.1271 3.6194 -7.5649 0.0000 0.0000 
3.8752 95.1719 -1.8228 0.1680 -3.0218 -3.1492 3.6821 0.9596 1.9456 1.4554 -0.0726 1.2268 1.4182 -0.0301 1.5826 6.1605 -3.5800 2.0136 -0.0000 0.0000 -0.0000 -7.0447 -8.0353 2.2967 -11.1338 4.6677 -16.9203 -68.7166 19.9311 -1.2697 0.0000 0.0000 -2.7475 -8.1519 -2.9323 -28.2138 -1.2620 4.7859 8.5754 14.2746 8.6585 14.0585 -4.3838 -7.3980 1.1506 -12.7767 -0.0000 -1.2851 -17.5179 0.0000 0.0000 -18.5297 0.0000 0.0000 -4.3004 0.4119 -4.0871 -17.3778 -0.0000 -0.0000 -7.9961 0.0000 -0.0000 -18.2825 0.0000 -0.9758 -21.0242 -0.0000 0.0000 -17.9650 0.0000 -0.0000 -24.4097 -0.0988 0.2552 -17.4474 -0.0000 0.0000 -16.5371 0.0000 0.0000 14.5855 5.1084 14.8178 59.8108 17.4856 3.6051 0.0000 -0.0000 9.9232 3.7502 4.6259 -3.6265 1.2620 4.7859 -8.5754 -12.7874 9.3283 -16.4354 0.7561 -9.7243 4.2725 4.4952 0.4569 4.0089 17.4578 0.0000 -0.0000 8.0761 -0.0000 -0.0000 13.0219 0.0000 1.3215 17.5312 -0.0000 -0.0000 18.5433 -0.0000 0.0000 18.3864 -0.0000 0.8155 21.0737 0.0000 -0.0000 18.0141 -0.0000 0.0000 24.3538 -0.0555 -0.6221 17.5005 -0.0000 0.0000 16.5971 0.0000 -0.0000 -14.9129 11.4418 8.1774 22.1545 8.1131 4.4969 -4.4306 4.6069 -6.3475 -4.9285 0.0000 -0.0000 -8.9729 -0.4057 -1.6888 24.2498 -9.9991 2.1188 -6.4010 -11.6665 3.8291 -7.0783 -0.0000 0.0000 
5.8602 95.1933 -2.4378 -1.8533 -2.7455 -3.2254 3.7806 0.7898 2.3582 1.5574 -0.2686 0.9914 1.5178 -0.2010 1.5916 6.7936 -5.3033 2.6504 -0.0000 0.0000 -0.0000 -5.6949 -12.2487 3.3171 -11.0432 4.6469 -16.8433 -68.1218 19.5125 -0.4067 -0.0000 -0.0000 -3.3275 -7.9993 -2.0087 -28.8722 -1.2621 4.7859 8.5754 14.2236 8.7063 14.1383 -4.3838 -7.3980 1.1337 -12.8294 0.0000 -1.3295 -17.5020 0.0000 0.0000 -18.5141 -0.0000 0.0000 -4.3963 0.4155 -4.0852 -17.4594 -0.0000 -0.0000 -8.0777 0.0000 0.0000 -18.2827 0.0000 -0.9501 -21.0223 0.0000 -0.0000 -17.9630 0.0000 -0.0000 -24.4232 -0.1057 0.2155 -17.6596 -0.0000 0.0000 -16.7484 0.0000 0.0000 14.5519 5.0927 14.7650 59.8592 11.4511 2.8343 0.0000 0.0000 11.6399 2.4802 6.5956 2.8489 1.2620 4.7859 -8.5754 -12.7528 9.9996 -16.9299 0.4663 -8.9918 4.8931 5.1847 0.5300 3.8491 17.4968 0.0000 -0.0000 8.1151 0.0000 0.0000 13.7747 -0.0000 1.1058 17.6080 0.0000 -0.0000 18.6191 0.0000 -0.0000 18.8703 0.0000 0.6821 21.0953 0.0000 -0.0000 18.0351 0.0000 -0.0000 24.6762 -0.0303 -0.8499 17.5236 0.0000 0.0000 16.6208 -0.0000 0.0000 -15.2290 10.6595 6.6217 22.7500 8.9717 4.7577 -4.9231 7.0414 -5.4491 -4.9285 0.0000 -0.0000 -9.4576 -0.7157 -3.2659 25.0062 -9.9992 3.4867 -4.0822 -16.5708 2.6254 -7.3330 0.0000 -0.0000 
7.5246 95.2667 -2.9938 -3.9278 -2.4920 -3.3053 3.8085 0.5935 2.8851 1.6008 -0.4995 0.7331 1.5595 -0.4002 1.6234 7.4229 -6.9026 3.1356 -0.0000 0.0000 -0.0000 -3.8203 -16.2651 4.3445 -11.0371 4.6319 -16.7690 -67.4530 19.2347 0.4550 0.0000 -0.0000 -3.8918 -7.8099 -0.8003 -29.4410 -1.2620 4.7859 8.5754 14.1735 8.7199 14.2396 -4.3838 -7.3980 1.1402 -12.7522 0.0000 -1.2759 -17.5274 0.0000 0.0000 -18.5392 -0.0000 0.0000 -4.3878 0.4185 -4.0861 -17.4702 0.0000 0.0000 -8.0885 0.0000 0.0000 -18.3272 -0.0000 -0.9898 -20.9824 0.0000 0.0000 -17.9232 0.0000 0.0000 -24.4658 -0.1188 0.1400 -17.6713 -0.0000 0.0000 -16.7584 -0.0000 0.0000 14.4057 5.0471 14.6272 60.0849 6.0044 1.3743 -0.0000 -0.0000 13.8533 1.4746 8.4761 8.4873 1.2621 4.7859 -8.5754 -12.7516 9.9996 -16.9542 0.3318 -8.6029 5.0720 5.4098 0.5420 3.8228 17.4843 -0.0000 -0.0000 8.1027 0.0000 0.0000 13.9413 0.0000 1.0348 17.6327 0.0000 0.0000 18.6436 -0.0000 0.0000 19.0085 0.0000 0.6465 21.0924 -0.0000 -0.0000 18.0320 0.0000 0.0000 24.7772 -0.0186 -0.9532 17.5071 -0.0000 -0.0000 16.6045 0.0000 0.0000 -15.3985 10.9022 5.5039 22.6687 8.4637 5.0393 -5.0364 9.7605 -4.5259 -4.9285 0.0000 0.0000 -9.3146 -2.2240 -4.7557 24.8336 -9.9992 5.6278 -2.6390 -20.8667 1.0387 -7.7517 -0.0000 0.0000 
